<?xml version="1.0" encoding="UTF-8" standalone="no"?>
<svg
   xmlns:dc="http://purl.org/dc/elements/1.1/"
   xmlns:cc="http://creativecommons.org/ns#"
   xmlns:rdf="http://www.w3.org/1999/02/22-rdf-syntax-ns#"
   xmlns:svg="http://www.w3.org/2000/svg"
   xmlns="http://www.w3.org/2000/svg"
   xmlns:sodipodi="http://sodipodi.sourceforge.net/DTD/sodipodi-0.dtd"
   xmlns:inkscape="http://www.inkscape.org/namespaces/inkscape"
   version="1.1"
   x="0px"
   y="0px"
   width="100px"
   height="100px"
   viewBox="0 0 100 100"
   enable-background="new 0 0 100 100"
   xml:space="preserve"
   id="svg2"
   inkscape:version="0.48.3.1 r9886"
   sodipodi:docname="icon_16716.svg"><metadata
   id="metadata12"><rdf:RDF><cc:Work
       rdf:about=""><dc:format>image/svg+xml</dc:format><dc:type
         rdf:resource="http://purl.org/dc/dcmitype/StillImage" /></cc:Work></rdf:RDF></metadata><defs
   id="defs10" /><sodipodi:namedview
   pagecolor="#ffffff"
   bordercolor="#666666"
   borderopacity="1"
   objecttolerance="10"
   gridtolerance="10"
   guidetolerance="10"
   inkscape:pageopacity="0"
   inkscape:pageshadow="2"
   inkscape:window-width="1308"
   inkscape:window-height="969"
   id="namedview8"
   showgrid="false"
   inkscape:zoom="2.36"
   inkscape:cx="-36.864407"
   inkscape:cy="50"
   inkscape:window-x="0"
   inkscape:window-y="0"
   inkscape:window-maximized="0"
   inkscape:current-layer="svg2" />
<g
   id="Captions"
   transform="matrix(1.0908435,0,0,1.0908435,-0.47520231,-8.6031676)">
</g>
<g
   id="Your_Icon"
   transform="matrix(1.0908435,0,0,1.0908435,-2.4864427,-3.306347)"
   style="fill:#ffffff">
	<path
   d="m 37.867,58.713 c -0.169,0.408 -0.328,0.82 -0.468,1.238 -0.739,2.203 -0.999,4.332 -0.829,6.299 0.172,1.996 0.788,3.832 1.797,5.408 1.026,1.603 2.459,2.939 4.246,3.904 1.814,0.981 3.989,1.578 6.46,1.679 2.502,0.103 5.059,-0.312 7.53,-1.155 2.488,-0.848 4.873,-2.123 7.016,-3.728 2.143,-1.605 4.029,-3.525 5.527,-5.659 1.49,-2.119 2.584,-4.436 3.162,-6.84 0.57,-2.373 0.58,-4.598 0.119,-6.586 -0.453,-1.957 -1.361,-3.68 -2.637,-5.089 -1.256,-1.387 -2.869,-2.472 -4.762,-3.181 -1.861,-0.698 -3.998,-1.034 -6.34,-0.937 -1.072,0.044 -2.141,0.181 -3.199,0.395 l -0.387,12.15 -0.188,5.928 -5.786,-1.299 -11.261,-2.527 z m -3.715,-5.859 6.237,1.4 9.814,2.203 0.53,-16.708 0.205,-6.413 0.51,-16.063 -10.123,7.843 -9.414,-10.552 -18.178,14.07 7.979,11.674 -9.761,7.561 15.817,3.55 6.384,1.435 z m 55.781,-5.915 c -1.143,-3.703 -3.152,-6.896 -5.834,-9.445 -2.6,-2.473 -5.83,-4.342 -9.527,-5.499 -3.596,-1.125 -7.646,-1.58 -12.02,-1.258 -2.244,0.165 -4.471,0.532 -6.66,1.067 l -0.203,6.4 c 1.615,-0.365 3.256,-0.604 4.9,-0.698 3.334,-0.191 6.4,0.222 9.096,1.15 2.754,0.948 5.131,2.435 7.014,4.367 1.924,1.978 3.332,4.422 4.082,7.227 0.768,2.87 0.848,6.109 0.094,9.587 -0.77,3.545 -2.328,6.977 -4.492,10.126 -2.186,3.181 -4.971,6.046 -8.15,8.428 -3.182,2.384 -6.727,4.262 -10.422,5.484 -3.66,1.212 -7.434,1.768 -11.106,1.54 -3.604,-0.223 -6.748,-1.181 -9.341,-2.695 -2.537,-1.48 -4.541,-3.492 -5.944,-5.871 -1.372,-2.325 -2.17,-5.002 -2.336,-7.891 -0.164,-2.826 0.278,-5.863 1.385,-8.99 0.321,-0.906 0.695,-1.796 1.108,-2.668 l -6.438,-1.445 c -0.689,1.344 -1.306,2.721 -1.833,4.133 -1.526,4.084 -2.203,8.077 -2.097,11.82 0.109,3.851 1.045,7.453 2.749,10.615 1.756,3.262 4.328,6.057 7.64,8.156 3.413,2.164 7.601,3.582 12.452,3.998 4.974,0.428 10.121,-0.244 15.134,-1.846 5.078,-1.621 9.953,-4.174 14.32,-7.449 4.361,-3.272 8.156,-7.223 11.098,-11.61 2.9,-4.328 4.934,-9.029 5.857,-13.86 0.897,-4.707 0.649,-9.056 -0.526,-12.873 z M 29.958,12.29 26.66,8.662 9.285,22.106 12.09,26.128 29.958,12.29 z M 21.843,3.031 5.231,15.902 8.036,19.924 25.142,6.659 21.843,3.031 z"
   id="path6"
   inkscape:connector-curvature="0"
   style="fill:#ffffff" />
</g>
</svg>