<?xml version="1.0" encoding="UTF-8" standalone="no"?>
<svg
   xmlns:dc="http://purl.org/dc/elements/1.1/"
   xmlns:cc="http://creativecommons.org/ns#"
   xmlns:rdf="http://www.w3.org/1999/02/22-rdf-syntax-ns#"
   xmlns:svg="http://www.w3.org/2000/svg"
   xmlns="http://www.w3.org/2000/svg"
   xmlns:sodipodi="http://sodipodi.sourceforge.net/DTD/sodipodi-0.dtd"
   xmlns:inkscape="http://www.inkscape.org/namespaces/inkscape"
   version="1.1"
   id="Capa_1"
   x="0px"
   y="0px"
   width="100px"
   height="100px"
   viewBox="0 0 100 100"
   enable-background="new 0 0 100 100"
   xml:space="preserve"
   inkscape:version="0.48.3.1 r9886"
   sodipodi:docname="icon_27307.svg"><metadata
   id="metadata34"><rdf:RDF><cc:Work
       rdf:about=""><dc:format>image/svg+xml</dc:format><dc:type
         rdf:resource="http://purl.org/dc/dcmitype/StillImage" /></cc:Work></rdf:RDF></metadata><defs
   id="defs32">
	

		
		
		
		
	
			
			
		</defs><sodipodi:namedview
   pagecolor="#ffffff"
   bordercolor="#666666"
   borderopacity="1"
   objecttolerance="10"
   gridtolerance="10"
   guidetolerance="10"
   inkscape:pageopacity="0"
   inkscape:pageshadow="2"
   inkscape:window-width="1347"
   inkscape:window-height="1010"
   id="namedview30"
   showgrid="false"
   inkscape:zoom="5.04"
   inkscape:cx="36.265271"
   inkscape:cy="50"
   inkscape:window-x="915"
   inkscape:window-y="144"
   inkscape:window-maximized="0"
   inkscape:current-layer="Capa_1"
   showguides="true"
   inkscape:guide-bbox="true" />
<path
   sodipodi:type="inkscape:offset"
   inkscape:radius="1.3888888"
   inkscape:original="M 48.375 52.5625 L 48.375 60.875 L 12.28125 60.875 C 5.7031983 60.875 0.34375 66.262085 0.34375 72.875 L 0.34375 86 L 3.625 86 L 3.625 72.875 C 3.625 68.075265 7.5069353 64.15625 12.28125 64.15625 L 48.375 64.15625 L 48.375 88.15625 L 51.65625 88.15625 L 51.65625 64.15625 L 87.71875 64.15625 C 92.493065 64.15625 96.375 68.075265 96.375 72.875 L 96.375 86 L 99.65625 86 L 99.65625 72.875 C 99.65625 66.260878 94.296802 60.875 87.71875 60.875 L 51.65625 60.875 L 51.65625 52.5625 L 48.375 52.5625 z "
   style="stroke-width:0.10000000000000001;stroke-miterlimit:4;stroke-dasharray:none;fill:#ffffff"
   id="path3818"
   d="M 48.09375,51.1875 A 1.3890277,1.3890277 0 0 0 47,52.5625 l 0,6.9375 -34.71875,0 c -7.3363372,0 -13.3125,6.011667 -13.3125,13.375 l 0,13.125 a 1.3890277,1.3890277 0 0 0 1.375,1.375 l 3.28125,0 A 1.3890277,1.3890277 0 0 0 5,86 L 5,72.875 c 0,-4.050864 3.2669852,-7.34375 7.28125,-7.34375 l 34.71875,0 0,22.625 a 1.3890277,1.3890277 0 0 0 1.375,1.375 l 3.28125,0 a 1.3890277,1.3890277 0 0 0 1.375,-1.375 l 0,-22.625 34.6875,0 C 91.733015,65.53125 95,68.824136 95,72.875 L 95,86 a 1.3890277,1.3890277 0 0 0 1.375,1.375 l 3.28125,0 a 1.3890277,1.3890277 0 0 0 1.375,-1.375 l 0,-13.125 c 0,-7.364403 -5.976332,-13.375 -13.3125,-13.375 l -34.6875,0 0,-6.9375 a 1.3890277,1.3890277 0 0 0 -1.375,-1.375 l -3.28125,0 a 1.3890277,1.3890277 0 0 0 -0.28125,0 z"
   transform="matrix(0.95334325,0,0,1,2.3328376,6)" /><polygon
   id="polygon10"
   points="70.939,34.638 29.94,34.638 29.94,3.16 45.927,3.16 48.595,8.371 70.939,8.371 "
   transform="matrix(1.5646491,0,0,1.6478917,-28.920118,-5.3272108)"
   style="fill:#ffffff" />
</svg>