<?xml version="1.0" encoding="UTF-8" standalone="no"?>
<svg
   xmlns:dc="http://purl.org/dc/elements/1.1/"
   xmlns:cc="http://creativecommons.org/ns#"
   xmlns:rdf="http://www.w3.org/1999/02/22-rdf-syntax-ns#"
   xmlns:svg="http://www.w3.org/2000/svg"
   xmlns="http://www.w3.org/2000/svg"
   xmlns:sodipodi="http://sodipodi.sourceforge.net/DTD/sodipodi-0.dtd"
   xmlns:inkscape="http://www.inkscape.org/namespaces/inkscape"
   version="1.1"
   id="Guide"
   x="0px"
   y="0px"
   width="100px"
   height="100px"
   viewBox="0 0 100 100"
   enable-background="new 0 0 100 100"
   xml:space="preserve"
   inkscape:version="0.48.3.1 r9886"
   sodipodi:docname="icon_25337.svg"><metadata
   id="metadata9"><rdf:RDF><cc:Work
       rdf:about=""><dc:format>image/svg+xml</dc:format><dc:type
         rdf:resource="http://purl.org/dc/dcmitype/StillImage" /></cc:Work></rdf:RDF></metadata><defs
   id="defs7" /><sodipodi:namedview
   pagecolor="#ffffff"
   bordercolor="#666666"
   borderopacity="1"
   objecttolerance="10"
   gridtolerance="10"
   guidetolerance="10"
   inkscape:pageopacity="0"
   inkscape:pageshadow="2"
   inkscape:window-width="2560"
   inkscape:window-height="1406"
   id="namedview5"
   showgrid="false"
   inkscape:zoom="2.36"
   inkscape:cx="50"
   inkscape:cy="50"
   inkscape:window-x="0"
   inkscape:window-y="0"
   inkscape:window-maximized="1"
   inkscape:current-layer="Guide" />
<path
   style="fill:#ffffff"
   d="M 48.78125,3.03125 C 24.571894,3.0108966 3.0084099,24.581479 3.03125,48.78125 1.7451724,73.014812 22.228539,95.587474 46.375,96.84375 70.156336,99.293799 93.366316,80.677304 96.5,57.09375 100.37314,34.429801 85.082121,10.60963 62.875,4.78125 58.276649,3.4809259 53.56602,2.8977262 48.78125,3.03125 z m 0.34375,11.4375 c 8.43079,-0.267795 16.63251,2.708191 23.28125,7.8125 C 54.47845,37.186636 36.548486,52.089429 18.625,67 9.5411108,50.566433 15.894584,27.852622 32.5625,19 37.605929,16.158625 43.326072,14.624804 49.125,14.46875 z m 32.0625,18.5 C 90.924744,49.685295 83.621138,73.51278 65.96875,81.75 52.976758,88.474977 36.291162,86.00829 25.71875,76 43.823902,60.949104 61.930414,45.899834 80.03125,30.84375 c 0.385417,0.708333 0.770833,1.416667 1.15625,2.125 z"
   id="path3"
   inkscape:connector-curvature="0" />
</svg>