<?xml version="1.0" encoding="UTF-8" standalone="no"?>
<!-- Generator: Adobe Illustrator 16.0.0, SVG Export Plug-In . SVG Version: 6.00 Build 0)  -->

<svg
   xmlns:dc="http://purl.org/dc/elements/1.1/"
   xmlns:cc="http://creativecommons.org/ns#"
   xmlns:rdf="http://www.w3.org/1999/02/22-rdf-syntax-ns#"
   xmlns:svg="http://www.w3.org/2000/svg"
   xmlns="http://www.w3.org/2000/svg"
   xmlns:sodipodi="http://sodipodi.sourceforge.net/DTD/sodipodi-0.dtd"
   xmlns:inkscape="http://www.inkscape.org/namespaces/inkscape"
   version="1.1"
   id="svg2"
   inkscape:version="0.48.3.1 r9886"
   sodipodi:docname="icon_10052.svg"
   x="0px"
   y="0px"
   width="100px"
   height="100px"
   viewBox="0 0 100 100"
   enable-background="new 0 0 100 100"
   xml:space="preserve"><metadata
   id="metadata8"><rdf:RDF><cc:Work
       rdf:about=""><dc:format>image/svg+xml</dc:format><dc:type
         rdf:resource="http://purl.org/dc/dcmitype/StillImage" /></cc:Work></rdf:RDF></metadata><defs
   id="defs6" /><sodipodi:namedview
   pagecolor="#ffffff"
   bordercolor="#666666"
   borderopacity="1"
   objecttolerance="10"
   gridtolerance="10"
   guidetolerance="10"
   inkscape:pageopacity="0"
   inkscape:pageshadow="2"
   inkscape:window-width="1195"
   inkscape:window-height="1011"
   id="namedview4"
   showgrid="false"
   inkscape:zoom="2.36"
   inkscape:cx="50"
   inkscape:cy="50"
   inkscape:window-x="363"
   inkscape:window-y="297"
   inkscape:window-maximized="0"
   inkscape:current-layer="svg2" />
<path
   d="M 48.78125,2.03125 C 24.072207,1.966874 1.9684025,24.0753 2.03125,48.78125 0.70476985,73.467078 21.670904,96.622749 46.3125,97.84375 70.928921,100.44314 95.106879,80.663863 97.59375,56.125 101.36417,32.055802 83.521506,7.2547194 59.65625,3 56.096141,2.2295883 52.422071,1.9297286 48.78125,2.03125 z m 0.25,10.125 C 70.389518,11.059762 89.456619,30.636689 87.8125,51.96875 87.245381,73.273391 66.298279,90.854926 45.15625,87.53125 23.988404,85.3939 8.0848045,63.206471 12.90625,42.375 16.19938,25.477878 31.727829,12.377457 49.03125,12.15625 z M 49.125,32.875 C 36.247598,32.872442 28.059323,49.381662 35.8125,59.65625 42.613811,70.777637 61.243906,68.968196 65.78125,56.75 71.005512,45.604409 61.411863,31.785867 49.125,32.875 z"
   id="path2985"
   inkscape:connector-curvature="0"
   style="fill:#ffffff" />
</svg>