<svg xmlns="http://www.w3.org/2000/svg" xmlns:xlink="http://www.w3.org/1999/xlink" version="1.1" x="0px" y="0px" width="500px" height="500px" viewBox="0 0 100 100" enable-background="new 0 0 100 100" xml:space="preserve">
<g id="Captions">
</g>
<g id="Your_Icon">
	<g>
		<path d="M36.818,59.693l-3.399,10.659c1.197,0.217,2.391,0.358,3.575,0.358c7.705,0,14.884-4.472,18.241-11.63l-10.654-3.396    C42.833,58.243,39.917,59.748,36.818,59.693z"/>
		<path d="M37.154,41.308l3.4-10.665c-1.198-0.214-2.391-0.355-3.576-0.355c-7.705,0.004-14.886,4.471-18.243,11.632l10.659,3.399    C31.142,42.755,34.057,41.251,37.154,41.308z"/>
		<path d="M45.562,32.255l-3.394,10.652c2.56,1.748,4.068,4.66,4.012,7.762l10.664,3.4c0.214-1.197,0.354-2.393,0.354-3.576    C57.195,42.792,52.724,35.609,45.562,32.255z"/>
		<path d="M27.796,50.333l-10.667-3.399c-0.216,1.196-0.355,2.392-0.355,3.574c0.002,7.703,4.474,14.886,11.635,18.24l3.396-10.653    C29.246,56.347,27.74,53.434,27.796,50.333z"/>
	</g>
	<path d="M89.473,0H10.527C4.713,0,0,4.712,0,10.526v78.948C0,95.287,4.713,100,10.527,100h78.946    C95.286,100,100,95.287,100,89.474V10.526C100,4.712,95.286,0,89.473,0z M61.251,58.234    c-3.455,10.827-13.464,17.742-24.258,17.739c-2.567,0-5.174-0.391-7.741-1.206l0.799-2.51l-0.801,2.51    C18.423,71.31,11.509,61.3,11.511,50.507c0-2.566,0.391-5.173,1.208-7.74c3.456-10.829,13.467-17.742,24.26-17.742    c2.563,0,5.175,0.391,7.741,1.209c10.829,3.458,17.743,13.465,17.74,24.259C62.46,53.061,62.069,55.668,61.251,58.234z     M89.765,82.237c0,2.665-2.16,4.824-4.824,4.824c-2.665,0-4.825-2.159-4.825-4.824V17.763c0-2.666,2.16-4.825,4.825-4.825    c2.664,0,4.824,2.159,4.824,4.825V82.237z"/>
</g>
</svg>