<!--
Copyright 2013 The Camlistore Authors

Licensed under the Apache License, Version 2.0 (the "License");
you may not use this file except in compliance with the License.
You may obtain a copy of the License at

     http://www.apache.org/licenses/LICENSE-2.0

Unless required by applicable law or agreed to in writing, software
distributed under the License is distributed on an "AS IS" BASIS,
WITHOUT WARRANTIES OR CONDITIONS OF ANY KIND, either express or implied.
See the License for the specific language governing permissions and
limitations under the License.
-->

<svg xmlns="http://www.w3.org/2000/svg" xmlns:xlink="http://www.w3.org/1999/xlink" version="1.1" x="0px" y="0px" width="500px" height="500px" viewBox="0 0 100 100" enable-background="new 0 0 100 100" xml:space="preserve">
<g id="Captions">
</g>
<g id="Your_Icon">
	<path d="M89.473,0H10.527C4.713,0,0,4.712,0,10.526v78.948C0,95.287,4.713,100,10.527,100h78.946    C95.286,100,100,95.287,100,89.474V10.526C100,4.712,95.286,0,89.473,0z M61.251,58.234    c-3.455,10.827-13.464,17.742-24.258,17.739c-2.567,0-5.174-0.391-7.741-1.206l0.799-2.51l-0.801,2.51    C18.423,71.31,11.509,61.3,11.511,50.507c0-2.566,0.391-5.173,1.208-7.74c3.456-10.829,13.467-17.742,24.26-17.742    c2.563,0,5.175,0.391,7.741,1.209c10.829,3.458,17.743,13.465,17.74,24.259C62.46,53.061,62.069,55.668,61.251,58.234z     M89.765,82.237c0,2.665-2.16,4.824-4.824,4.824c-2.665,0-4.825-2.159-4.825-4.824V17.763c0-2.666,2.16-4.825,4.825-4.825    c2.664,0,4.824,2.159,4.824,4.825V82.237z"/>
</g>
</svg>